<?xml version="1.0" encoding="utf-8"?>
<!-- Generator: Adobe Illustrator 21.0.2, SVG Export Plug-In . SVG Version: 6.00 Build 0)  -->
<svg version="1.1" id="Layer_1" xmlns="http://www.w3.org/2000/svg" xmlns:xlink="http://www.w3.org/1999/xlink" x="0px" y="0px"
	 viewBox="0 0 1920 1020" style="enable-background:new 0 0 1920 1020;" xml:space="preserve">
<style type="text/css">
	.st0{fill:url(#SVGID_1_);}
	.st1{opacity:0.7;fill:#F2F2F2;}
</style>
<linearGradient id="SVGID_1_" gradientUnits="userSpaceOnUse" x1="-2.7354" y1="510" x2="1920" y2="510">
	<stop  offset="0" style="stop-color:#094773"/>
	<stop  offset="0.1612" style="stop-color:#094A75"/>
	<stop  offset="0.3298" style="stop-color:#0B517C"/>
	<stop  offset="0.502" style="stop-color:#115C88"/>
	<stop  offset="0.6764" style="stop-color:#196D9B"/>
	<stop  offset="0.8509" style="stop-color:#1F84B6"/>
	<stop  offset="1" style="stop-color:#20A2DC"/>
</linearGradient>
<rect x="-2.7" class="st0" width="1922.7" height="1020"/>
<path class="st1" d="M807.1,394.3C807.1,394.3,807.1,394.3,807.1,394.3c0-0.1-0.1-0.1-0.1-0.1c0,0,0,0,0,0c0,0,0,0,0,0c0,0,0,0,0,0
	c0,0,0,0,0,0c0,0-0.1,0.1,0,0.1c0,0,0,0,0,0c-0.1,0.1-0.2,0.1-0.2,0.1c0,0,0.2,0,0.3,0s0.3-0.1,0.2-0.2
	C807.3,394.2,807.2,394.2,807.1,394.3z M806.8,394.5C806.7,394.5,806.7,394.5,806.8,394.5C806.7,394.5,806.7,394.5,806.8,394.5
	C806.7,394.5,806.8,394.5,806.8,394.5C806.8,394.5,806.8,394.5,806.8,394.5z M806.9,394.5C806.9,394.5,806.9,394.5,806.9,394.5
	C806.9,394.5,806.9,394.5,806.9,394.5C806.9,394.5,806.9,394.5,806.9,394.5C806.9,394.5,806.9,394.5,806.9,394.5z M807,394.4
	C807,394.4,807,394.4,807,394.4C807,394.4,807,394.4,807,394.4C807,394.4,807,394.4,807,394.4C807,394.4,807,394.4,807,394.4z
	 M806.9,394.3C807,394.3,807,394.3,806.9,394.3C807,394.3,806.9,394.3,806.9,394.3z M807,394.3C807,394.3,807,394.3,807,394.3
	C807,394.3,807,394.3,807,394.3z M807,394.3C807,394.3,807,394.3,807,394.3C807,394.3,807,394.3,807,394.3
	C807,394.3,807,394.3,807,394.3C807,394.3,807,394.3,807,394.3L807,394.3C807,394.3,807,394.3,807,394.3L807,394.3
	C807,394.3,807,394.3,807,394.3L807,394.3C807,394.3,807,394.3,807,394.3c0-0.1,0-0.1,0-0.1c0,0,0,0,0,0
	C807,394.2,807,394.2,807,394.3L807,394.3C807,394.2,807,394.2,807,394.3C806.9,394.3,806.9,394.3,807,394.3L807,394.3
	c-0.1-0.1-0.1-0.1-0.1-0.1c0,0,0,0,0,0c0,0,0,0,0,0C806.9,394.3,806.9,394.3,807,394.3L807,394.3C806.9,394.3,806.9,394.3,807,394.3
	L807,394.3C806.9,394.3,806.9,394.3,807,394.3L807,394.3C806.9,394.3,806.9,394.3,807,394.3C806.9,394.3,806.9,394.3,807,394.3
	C807,394.3,807,394.3,807,394.3C807,394.3,807,394.4,807,394.3c-0.1,0-0.1,0-0.1,0c0,0,0-0.1,0.1-0.1C807,394.2,807,394.2,807,394.3
	C807.1,394.3,807.1,394.3,807,394.3z M807.2,394.4C807.2,394.4,807.2,394.4,807.2,394.4C807.2,394.4,807.2,394.4,807.2,394.4
	C807.2,394.4,807.2,394.4,807.2,394.4C807.2,394.4,807.2,394.4,807.2,394.4z M807.3,394.3C807.3,394.3,807.3,394.3,807.3,394.3
	C807.3,394.3,807.3,394.3,807.3,394.3C807.3,394.3,807.3,394.3,807.3,394.3C807.3,394.3,807.3,394.3,807.3,394.3z"/>
</svg>
